<?xml version="1.0" standalone="no"?>
<!DOCTYPE svg PUBLIC "-//W3C//DTD SVG 20010904//EN"
 "http://www.w3.org/TR/2001/REC-SVG-20010904/DTD/svg10.dtd">
<svg version="1.0" xmlns="http://www.w3.org/2000/svg"
 width="320.000000pt" height="320.000000pt" viewBox="0 0 320.000000 320.000000"
 preserveAspectRatio="xMidYMid meet">
<metadata>
Created by potrace 1.14, written by Peter Selinger 2001-2017
</metadata>
<g transform="translate(0.000000,320.000000) scale(0.100000,-0.100000)"
fill="#000000" stroke="none">
<path d="M1556 2803 c-1 -1 -34 -4 -73 -7 -173 -13 -373 -82 -532 -183 -31
-20 -58 -38 -61 -42 -3 -3 -23 -19 -44 -35 -199 -148 -379 -447 -426 -707 -57
-314 4 -622 175 -885 60 -93 78 -115 156 -193 161 -162 364 -272 619 -332 60
-15 360 -19 422 -7 35 7 110 25 133 32 6 1 29 8 51 14 64 19 170 69 273 130
98 58 200 150 285 256 68 84 95 126 156 248 18 35 36 71 41 80 4 9 20 65 33
125 73 316 38 605 -105 871 -151 282 -381 473 -699 580 -58 19 -127 39 -155
43 -45 7 -244 17 -249 12z"/>
</g>
</svg>
